<svg xmlns="http://www.w3.org/2000/svg" width="19" height="19" viewBox="0 0 19 19"><path fill="#FFF" fill-rule="evenodd" d="M15.2747842,9.97420181 L1.5,9.97420181 C1.22385763,9.97420181 1,9.75034418 1,9.47420181 C1,9.19805944 1.22385763,8.97420181 1.5,8.97420181 L15.2048147,8.97420181 L10.3856726,3.23097185 C10.1726715,2.97712704 10.2057819,2.59867367 10.4596267,2.38567258 C10.7134715,2.1726715 11.0919249,2.20578188 11.3049259,2.45962668 L16.6877935,8.8746784 C16.7588503,8.89780956 16.8267457,8.93469176 16.8875028,8.98567296 C17.0483021,9.1205996 17.1205283,9.32191651 17.097731,9.51589499 C17.1205283,9.70987346 17.0483021,9.91119038 16.8875028,10.046117 C16.8267457,10.0970982 16.7588503,10.1339804 16.6877935,10.1571116 L11.3049259,16.5721633 C11.0919249,16.8260081 10.7134715,16.8591185 10.4596267,16.6461174 C10.2057819,16.4331163 10.1726715,16.0546629 10.3856726,15.8008181 L15.2747842,9.97420181 Z"/></svg>
